<svg version="1.2" xmlns="http://www.w3.org/2000/svg" viewBox="0 0 128 97" width="128" height="97"><style>.a{fill:#1c1c1c}</style><path class="a" d="m107.7 8.1q-3.1-1.5-6.3-2.7-3.3-1.2-6.6-2.2-3.2-1-6.6-1.8-3.3-0.8-6.7-1.4-0.5 0.8-0.9 1.7-0.5 0.8-0.9 1.7-0.4 0.8-0.8 1.7-0.4 0.9-0.8 1.7-3.6-0.5-7.2-0.8-3.7-0.3-7.3-0.3-3.7 0-7.3 0.3-3.7 0.3-7.3 0.8-0.4-0.8-0.8-1.7-0.4-0.9-0.8-1.7-0.4-0.9-0.9-1.7-0.4-0.9-0.9-1.7-3.4 0.6-6.7 1.4-3.4 0.8-6.6 1.8-3.3 1-6.6 2.2-3.2 1.3-6.3 2.7c-16.6 24.5-21.1 48.5-18.9 72.1q3.7 2.7 7.5 5.1 3.9 2.3 7.9 4.4 4.1 2 8.3 3.7 4.2 1.6 8.5 3 1-1.4 1.9-2.7 0.9-1.4 1.8-2.7 0.9-1.4 1.7-2.9 0.8-1.4 1.5-2.8-1.4-0.6-2.8-1.2-1.4-0.6-2.7-1.2-1.4-0.6-2.7-1.4-1.4-0.7-2.6-1.4 1.3-1 2.6-2c5 2.3 10.3 4.1 15.7 5.3 5.4 1.2 10.9 1.9 16.5 1.9 5.5 0 11-0.7 16.4-1.9 5.5-1.2 10.7-3 15.7-5.3q1.3 1 2.7 2-1.3 0.7-2.6 1.4-1.4 0.8-2.7 1.4-1.4 0.7-2.8 1.2-1.4 0.6-2.8 1.2 0.8 1.4 1.6 2.8 0.8 1.5 1.6 2.9 0.9 1.3 1.8 2.7 0.9 1.3 1.9 2.7 4.3-1.3 8.5-3 4.3-1.7 8.3-3.7 4-2.1 7.9-4.4 3.9-2.4 7.5-5.1c2.6-27.4-4.5-51.1-18.9-72.1zm-65.3 57.6c-6.2 0-11.4-5.7-11.4-12.7 0-7 5-12.7 11.4-12.7 6.5 0 11.6 5.7 11.5 12.7-0.1 7-5.1 12.7-11.5 12.7zm42.3 0c-6.3 0-11.5-5.7-11.5-12.7 0-7 5-12.7 11.5-12.7 6.4 0 11.5 5.7 11.4 12.7-0.1 7-5 12.7-11.4 12.7z"/></svg>