<svg version="1.2" xmlns="http://www.w3.org/2000/svg" viewBox="0 0 128 128" width="128" height="128"><style></style><path fill-rule="evenodd" d="m52.6 9h24.8c2.2 0 4 1.8 4 4v24.8c0 2.2-1.8 4-4 4h-24.8c-2.2 0-4-1.8-4-4v-24.8c0-2.2 1.8-4 4-4zm-39.6 38.3h24.8c2.2 0 4 1.8 4 4v24.8c0 2.2-1.8 4-4 4h-24.8c-2.2 0-4-1.8-4-4v-24.8c0-2.2 1.8-4 4-4zm77.9 0h24.8c2.2 0 4 1.8 4 4v24.8c0 2.2-1.8 4-4 4h-24.8c-2.2 0-4-1.8-4-4v-24.8c0-2.2 1.8-4 4-4zm-38.3 38.2h24.8c2.2 0 4 1.8 4 4v24.8c0 2.2-1.8 4-4 4h-24.8c-2.2 0-4-1.8-4-4v-24.8c0-2.2 1.8-4 4-4zm16.5-57.8q-0.1 0.7-1 1.2-0.9 0.5-2.8 0.5-1.7 0-2.5-0.5-0.8-0.5-0.9-1.1-0.1-0.6-0.1-1.6v-8.5h-5.5v8.9q0 3.2 1.9 5.2 1.9 2 7.1 2 5.1 0 7.2-2.1 2.2-2.1 2.2-5.3v-8.7h-5.4v8.3q0 1-0.2 1.7zm-11.4 66.5q0.2 4.1 0.2 7.9 0 3.7-0.2 8 2.1 0 4.1 0 2 0 3.9 0 3.2 0 5.4-1 2.2-1 3.3-2.8 1.1-1.8 1.1-4.2 0-2.6-1-4.3-0.9-1.8-3.3-2.8-2.4-1-6.5-1-4.4 0-7 0.2zm5.5 4.3q1-0.1 3.1-0.1 2 0 2.7 1 0.7 1 0.7 2.7 0 1.7-0.6 2.7-0.7 1-2.8 1h-3.1zm-43.8-42.5q0.2 4.2 0.2 7.9 0 3.7-0.2 7.9h15.5q0-1.4 0-2.4 0.1-1.1 0.4-2.2-4.2 0.2-10.5 0.2v-11.4zm92.3 1.4q-1.7-1.4-6.2-1.4h-4.4-5.2q0.2 4.2 0.2 7.9 0 3.7-0.2 7.9h5.2v-5h3.2q2.1 3.2 3 5h6l-3.6-4.9q-0.1-0.2-0.4-0.5 2.3-0.6 3.2-1.9 1-1.3 1-3.2 0-2.5-1.8-3.9zm-4.8 2.9q0.9 0.1 1.3 0.4 0.3 0.2 0.3 0.7 0 0.5-0.4 0.8-0.3 0.2-1.3 0.4-0.9 0.1-2.8 0.1h-2.9v-2.5h2.9q1.9 0 2.9 0.1z"/></svg>