<svg version="1.2" xmlns="http://www.w3.org/2000/svg" viewBox="0 0 192 191" width="192" height="192"><style>.a{fill:#cdf564}.b{fill:#96ac5c}.c{fill:#1c1c1c}.d{fill:#969696}.e{opacity:0;fill:#fff}</style><path class="a" d="m14 21.3c0-4 3.3-7.3 7.3-7.3h67l17.4 52.8 25.7 79.3h-110.1c-4 0-7.3-3.3-7.3-7.3z"/><path class="b" d="m93.8 146.1h37.6l-13.9 15.2-14.3 15.7z"/><path class="c" d="m99.1 47.1h73.5q1.1 0 2.1 0.4 1 0.4 1.7 1.2 0.8 0.8 1.2 1.7 0.4 1 0.4 2.1v119.1q0 1-0.4 2-0.4 1-1.2 1.8-0.7 0.7-1.7 1.1-1 0.4-2.1 0.5h-69.4l28.2-30.5z"/><path class="d" d="m136.3 61.1l3-1.9q2.1 2.1 3.6 4.8h11l2.8-4.8 4 1.1-2.4 3.7h11.8v3.4h-43.2v-3.4h11.6zm26.7 21.6v-14h3.6v15q0 4.9-4.2 4.9l-4.4-0.3-0.8-3.9 4.6 0.6q1.2 0 1.2-2.3zm-32.8-13.4h19.4v14.7q0 4.3-4.4 4.3l-3.1-0.4-0.8-3.3 3.7 0.4q0.9 0 0.9-2.7h-11.9v5.8h-3.8zm3.8 3.4v1.9h11.9v-1.9zm0 4.8v1.9h11.9v-1.9zm19.7 5.9v-13.4h3.4v13.4zm-25.2 9.8v-3.5h38.5q0 9.4-1.4 11.5-1.1 1.9-5 1.9l-7.4-0.7-0.6-3.7 7.5 0.8q1.9 0 2.4-0.8 0.6-0.9 0.8-5.5h-17.8q-2.1 7.1-15.3 10.1l-2.7-3.2q11.5-2.1 14-6.9zm3.1 31v-3.6h36.3l-0.2 23.2q-0.4 14.3-2.6 16.8-1.4 1.3-3.9 1.3l-6.3-0.3-0.9-3.7 7.2 0.6q1.7 0 2.1-3.1 1-5.9 1-31.2h-18.4q-0.2 15.2-3.8 23.6-3.7 8.4-11.1 14.5l-2.7-2.8q7.1-6 10.1-13.2 3.1-7.5 3.7-22.1z"/><path class="e" d="m99.1 46.2l25.1 24.2 52.9 52.8-45.7 22.4z"/><path  d="m93 59l-21.7 16.6 24.3 28.4h-26.3l-13.7-16.7-7.9 6.2v10.5h-20.7v-45h20.7v15.6l19.3-15.6z"/><path  d="m51 112.7q2.6-1.8 8.2-1.8 5.5 0 8.1 1.8 2.7 1.8 2.7 5.5 0 3.8-2.7 5.6-2.6 1.7-8.1 1.7-5.6 0-8.2-1.7-2.6-1.8-2.6-5.6 0-3.7 2.6-5.5zm5.2 7.7q1 0.8 3 0.8 1.9 0 2.9-0.8 1.1-0.7 1.1-2.2 0-1.4-1.1-2.2-1-0.8-2.9-0.8-2 0-3 0.8-1 0.8-1 2.2 0 1.5 1 2.2zm32.1 0.1v4.5h-17.3v-13.6h6.2v9.1zm7.1-9.1v13.6h-6.2v-13.6zm18.3 6.2v0.1q0.5 0.1 1 0.4 0.4 0.2 0.8 0.6 0.4 0.3 0.6 0.9 0.2 0.6 0.2 1.4 0 1-0.3 1.7-0.3 0.7-0.9 1.2-0.5 0.6-1.5 0.8-1 0.3-2.4 0.3h-14.6v-13.6h14.4q2.5 0 3.6 0.9 1.1 0.9 1.1 2.6 0 1.1-0.5 1.8-0.5 0.6-1.5 0.9zm-10.8-0.8h5q1.2 0 1.2-1 0-1-1.2-1h-5zm0 4.9h5.2q1.3 0 1.3-1.1 0-1.1-1.3-1.1h-5.2z"/></svg>