<svg version="1.2" xmlns="http://www.w3.org/2000/svg" viewBox="0 0 192 193" width="192" height="193"><style>.a{fill:#cdf564}.b{fill:#96ac5c}.c{fill:#1c1c1c}.d{fill:#969696}.e{opacity:0;fill:#fff}</style><path class="a" d="m14 22.3c0-4 3.3-7.3 7.3-7.3h67l17.4 52.8 25.7 79.3h-110.1c-4 0-7.3-3.3-7.3-7.3z"/><path class="b" d="m93.8 147.1h37.6l-13.9 15.2-14.3 15.7z"/><path class="c" d="m99.1 48.1h73.5q1.1 0 2.1 0.4 1 0.4 1.7 1.2 0.8 0.8 1.2 1.7 0.4 1 0.4 2.1v119.1q0 1-0.4 2-0.4 1-1.2 1.8-0.7 0.7-1.7 1.1-1 0.4-2.1 0.5h-69.4l28.2-30.5z"/><path fill-rule="evenodd" class="d" d="m167.2 67.7h-28.7v-14.7h28.7zm-3.1-6.2h-22.5v3.6h22.5zm0-5.9h-22.5v3.5h22.5zm7.7 23.7h-9v10.4h-3.1v-10.4h-12c-0.5 4-2.7 7.9-10.3 10.5-0.4-0.7-1.3-1.9-1.9-2.4 6.4-2.1 8.5-5.1 9.1-8.1h-10.6v-2.8h10.8v-3.6c-2.6 0.4-5.3 0.7-7.9 1-0.1-0.7-0.5-1.7-0.8-2.4 6-0.7 12.9-1.8 16.7-3.2l2.5 2.2c-2.1 0.7-4.7 1.3-7.4 1.9v4.1h11.8v-7.6h3.1v7.6h9zm-20.6 48.8c0 1.5-0.3 2.3-1.3 2.8-1.1 0.5-2.8 0.5-5.1 0.5-0.2-0.8-0.7-2-1.1-2.8 1.8 0.1 3.4 0.1 3.9 0.1 0.4-0.1 0.6-0.2 0.6-0.6v-4.6h-9v7.9h-2.9v-20.6h14.9zm-12-15v3h9v-3zm8.9 8.2v-3h-8.9v3zm2.1-21.2c-0.8 1.9-1.6 3.9-2.3 5.3h5.2v2.7h-19.2v-2.7h4.9c-0.3-1.4-0.9-3.6-1.6-5.3l2.5-0.6c0.7 1.7 1.4 3.9 1.7 5.3l-2.3 0.6h8.5l-2-0.6c0.6-1.4 1.4-3.8 1.8-5.4h-12.8v-2.6h7.3v-3.7h3.1v3.7h7.3v2.6h-4.6zm17.6 28.5c1.5 0 1.8-0.5 1.9-3.4 0.7 0.5 1.9 0.9 2.7 1.1-0.3 3.8-1.2 4.9-4.4 4.9h-7.7c-4 0-5.1-0.8-5.1-4.3v-18.2h11.8v-3.8h-11.8v-11.8h3v3.4h13.5v2.6h-13.5v3.4h11.8v8.7h-11.8v2.6h11.8v2h-11.8v2.6h11.5v2h-11.5v2.7h12v2.1h-12v1.7c0 1.4 0.3 1.7 2.3 1.7zm-13.9 36.6h14.7v2.4h-14.7v3.6c0 1.7-0.5 2.5-1.8 2.9-1.3 0.4-3.5 0.5-6.9 0.5-0.1-0.8-0.7-1.9-1.2-2.6 2.7 0 5.2 0 5.9 0 0.7 0 0.9-0.2 0.9-0.8v-3.6h-14.6v-2.4h14.6v-3h-10.4v-2.3h10.4v-2.8c-2.4 0.2-4.9 0.4-7.1 0.5-0.1-0.6-0.5-1.5-0.7-2.1 5.5-0.3 12-1 15.6-1.9l2 2c-1.9 0.5-4.2 0.9-6.7 1.2v3.1h10.7v2.3h-10.7zm8.7-13.5c2.6 2.8 5.8 5 9.2 6.4-0.7 0.6-1.6 1.7-2.1 2.5-4.1-1.9-7.9-5-10.9-8.9h-12.7c-2.8 3.6-6.5 6.8-11.2 9.3-0.3-0.8-1.3-1.8-1.9-2.3 3.7-1.9 6.8-4.3 9.2-7h-8.6v-2.6h10.8c1-1.2 1.8-2.6 2.5-3.9h-10.2v-2.7h5.5c-0.6-1.4-1.8-3.4-2.9-4.9l2.7-0.9c1.3 1.6 2.6 3.7 3.1 5.2l-1.7 0.6h4.8c0.9-2.1 1.6-4.3 2-6.4l3.1 0.3c-0.4 2.1-1.1 4.1-1.9 6.1h8.4l-1.1-0.3c1.1-1.6 2.5-4 3.2-5.7l3.1 1c-1.1 1.8-2.3 3.6-3.4 5h6.9v2.7h-10.6c0.7 1.4 1.6 2.7 2.5 3.9h10.7v2.6zm-5.6-2.6c-0.8-1.2-1.5-2.6-2.1-3.9h-4.7q-1 2-2.2 3.9z"/><path class="e" d="m99.1 47.2l25.1 24.2 52.9 52.8-45.7 22.4z"/><path  d="m93 60l-21.7 16.6 24.3 28.4h-26.3l-13.7-16.7-7.9 6.2v10.5h-20.7v-45h20.7v15.6l19.3-15.6z"/><path  d="m51 113.7q2.6-1.8 8.2-1.8 5.5 0 8.1 1.8 2.7 1.8 2.7 5.5 0 3.8-2.7 5.6-2.6 1.7-8.1 1.7-5.6 0-8.2-1.7-2.6-1.8-2.6-5.6 0-3.7 2.6-5.5zm5.2 7.7q1 0.8 3 0.8 1.9 0 2.9-0.8 1.1-0.7 1.1-2.2 0-1.4-1.1-2.2-1-0.8-2.9-0.8-2 0-3 0.8-1 0.8-1 2.2 0 1.5 1 2.2zm32.1 0.1v4.5h-17.3v-13.6h6.2v9.1zm7.1-9.1v13.6h-6.2v-13.6zm18.3 6.2v0.1q0.5 0.1 1 0.4 0.4 0.2 0.8 0.6 0.4 0.3 0.6 0.9 0.2 0.6 0.2 1.4 0 1-0.3 1.7-0.3 0.7-0.9 1.2-0.5 0.6-1.5 0.8-1 0.3-2.4 0.3h-14.6v-13.6h14.4q2.5 0 3.6 0.9 1.1 0.9 1.1 2.6 0 1.1-0.5 1.8-0.5 0.6-1.5 0.9zm-10.8-0.8h5q1.2 0 1.2-1 0-1-1.2-1h-5zm0 4.9h5.2q1.3 0 1.3-1.1 0-1.1-1.3-1.1h-5.2z"/></svg>