<svg version="1.2" xmlns="http://www.w3.org/2000/svg" viewBox="0 0 128 128" width="128" height="128">
	<title>Novo Projeto</title>
	<style>
		.s0 { fill: #000000 } 
	</style>
	<path id="Forma 2" class="s0" d="m84 10h16c2.2 0 4 1.8 4 4v16c0 2.2-1.8 4-4 4h-16c-2.2 0-4-1.8-4-4v-16c0-2.2 1.8-4 4-4zm-28 0h16c2.2 0 4 1.8 4 4v16c0 2.2-1.8 4-4 4h-16c-2.2 0-4-1.8-4-4v-16c0-2.2 1.8-4 4-4zm-29 0h16c2.2 0 4 1.8 4 4v16c0 2.2-1.8 4-4 4h-16c-2.2 0-4-1.8-4-4v-16c0-2.2 1.8-4 4-4z"/>
	<path id="Forma 2 copy" class="s0" d="m84 38h16c2.2 0 4 1.8 4 4v16c0 2.2-1.8 4-4 4h-16c-2.2 0-4-1.8-4-4v-16c0-2.2 1.8-4 4-4zm-28 0h16c2.2 0 4 1.8 4 4v16c0 2.2-1.8 4-4 4h-16c-2.2 0-4-1.8-4-4v-16c0-2.2 1.8-4 4-4zm-29 0h16c2.2 0 4 1.8 4 4v16c0 2.2-1.8 4-4 4h-16c-2.2 0-4-1.8-4-4v-16c0-2.2 1.8-4 4-4z"/>
	<path id="Forma 2 copy 2" class="s0" d="m84 66h16c2.2 0 4 1.8 4 4v16c0 2.2-1.8 4-4 4h-16c-2.2 0-4-1.8-4-4v-16c0-2.2 1.8-4 4-4zm-28 0h16c2.2 0 4 1.8 4 4v16c0 2.2-1.8 4-4 4h-16c-2.2 0-4-1.8-4-4v-16c0-2.2 1.8-4 4-4zm-29 0h16c2.2 0 4 1.8 4 4v16c0 2.2-1.8 4-4 4h-16c-2.2 0-4-1.8-4-4v-16c0-2.2 1.8-4 4-4z"/>
	<path id="Forma 3" class="s0" d="m27 94h45c2.2 0 4 1.8 4 4v16c0 2.2-1.8 4-4 4h-45c-2.2 0-4-1.8-4-4v-16c0-2.2 1.8-4 4-4z"/>
	<path id="Forma 4" class="s0" d="m84 94h16c2.2 0 4 1.8 4 4v16c0 2.2-1.8 4-4 4h-16c-2.2 0-4-1.8-4-4v-16c0-2.2 1.8-4 4-4z"/>
</svg>