<svg version="1.2" xmlns="http://www.w3.org/2000/svg" viewBox="0 0 35 128" width="35" height="128"><style>.a{fill:#fff}</style><path class="a" d="m12.3 73.9q1.1-5 1.1-10.4 0-5.3-1.1-10.4-1.1-5-2.5-8.4-1.4-3.5-3.4-6.6-1.9-3.1-3.2-4.7-1.3-1.5-2.5-2.7h17.9q1.1 0.7 2.3 1.7 1.2 1 2.8 2.7 1.5 1.7 2.9 3.6 1.5 2 2.9 4.7 1.4 2.7 2.4 5.6 1.1 3 1.7 6.8 0.6 3.7 0.6 7.7 0 4-0.6 7.8-0.6 3.8-1.7 6.8-1 2.9-2.4 5.6-1.4 2.7-2.9 4.7-1.4 1.9-2.9 3.6-1.6 1.7-2.8 2.7-1.2 1-2.3 1.7h-17.9q1.2-1.2 2.5-2.7 1.3-1.6 3.2-4.7 2-3.1 3.4-6.6 1.4-3.4 2.5-8.5z"/></svg>