<svg version="1.2" xmlns="http://www.w3.org/2000/svg" viewBox="0 0 220 128" width="220" height="128"><style>.a{fill:#fff}.b{fill:#f85a60;stroke:#000;stroke-miterlimit:100;stroke-width:4}.c{fill:#f85a60}</style><path class="a" d="m34.4 23v41h-31.4v8.9l41 32.1 41-33.2v-7.8h-30.1v-41z"/><path class="b" d="m152 124c-33.2 0-60-26.8-60-60 0-33.2 26.8-60 60-60 33.2 0 60 26.8 60 60 0 33.2-26.8 60-60 60z"/><path class="c" d="m14.5 118.8q2.1 0 2.5-1.2h6.8q-0.1 0.9-0.4 1.7-0.3 0.7-0.9 1.3-0.7 0.6-1.7 1-1.1 0.4-2.7 0.7-1.5 0.2-3.6 0.2-2.5 0-4.3-0.4-1.8-0.4-2.8-1.1-1.1-0.7-1.6-1.7-0.5-1.1-0.5-2.4 0-1.4 0.5-2.5 0.5-1 1.6-1.7 1-0.8 2.8-1.1 1.8-0.4 4.3-0.4 2.1 0 3.6 0.2 1.6 0.3 2.6 0.7 1.1 0.4 1.7 1 0.7 0.6 1 1.3 0.3 0.7 0.4 1.6h-6.8q-0.4-1.1-2.5-1.1-1.5 0-2.2 0.5-0.6 0.5-0.6 1.5 0 1.9 2.8 1.9zm10.1 3.2v-10.3h6.1v1.6h0.1q1.1-1 2.4-1.4 1.4-0.5 3.5-0.5 0.8 0 1.5 0.1v5.4q-1.2-0.2-2.5-0.2-0.6 0-1 0-0.5 0.1-1 0.2-0.5 0-0.9 0.2-0.4 0.1-0.8 0.4-0.4 0.2-0.6 0.5-0.3 0.3-0.5 0.8-0.1 0.5-0.1 1v2.2zm19.7-10.6q1.6-0.2 3.6-0.2 2 0 3.5 0.2 1.6 0.3 2.6 0.7 1.1 0.5 1.7 1.2 0.7 0.7 1 1.6 0.3 0.8 0.3 2 0 1.3-0.5 2.4-0.4 1-1.5 1.7-1.1 0.7-2.8 1.1-1.8 0.4-4.3 0.4-2.5 0-4.3-0.4-1.8-0.4-2.8-1.1-1.1-0.7-1.6-1.7-0.5-1.1-0.5-2.4 0-1.2 0.3-2 0.3-0.9 1-1.6 0.7-0.7 1.7-1.2 1.1-0.4 2.6-0.7zm1.4 6.9q0.7 0.5 2.2 0.5 1.4 0 2.1-0.5 0.7-0.5 0.7-1.4 0-1-0.7-1.5-0.7-0.5-2.1-0.5-1.5 0-2.2 0.5-0.6 0.5-0.6 1.5 0 0.9 0.6 1.4zm29.9-3.6h-6.9q-0.3-0.9-2.4-0.9-1.2 0-1.6 0.2-0.5 0.1-0.5 0.4 0 0.3 0.3 0.4 0.3 0.1 1.2 0.2l5.8 0.5q1.2 0 2 0.2 0.7 0.2 1.3 0.6 0.6 0.4 0.9 1 0.3 0.6 0.3 1.6 0 0.6-0.2 1.2-0.2 0.5-0.5 0.9-0.4 0.3-1 0.6-0.6 0.3-1.3 0.4-0.7 0.2-1.7 0.3-1 0.1-2 0.1-1.1 0.1-2.5 0.1-1.4 0-2.4 0-1-0.1-2-0.2-1-0.1-1.7-0.2-0.7-0.2-1.3-0.5-0.7-0.3-1-0.6-0.4-0.4-0.7-1-0.2-0.5-0.2-1.2h7q0.2 0.6 0.7 0.8 0.6 0.3 1.7 0.3 1.4 0 1.9-0.2 0.5-0.2 0.5-0.6 0-0.3-0.3-0.4-0.3-0.1-1.1-0.2l-5.4-0.5q-0.9-0.1-1.6-0.2-0.7-0.1-1.4-0.4-0.6-0.2-0.9-0.6-0.4-0.3-0.6-0.8-0.2-0.6-0.2-1.3 0-0.7 0.2-1.3 0.3-0.5 0.8-0.9 0.6-0.4 1.2-0.7 0.7-0.2 1.8-0.4 1-0.1 2-0.1 1.1-0.1 2.5-0.1 1.3 0 2.3 0 1 0.1 1.9 0.2 1 0.1 1.7 0.2 0.8 0.2 1.4 0.5 0.6 0.2 1 0.6 0.4 0.4 0.7 0.9 0.2 0.5 0.3 1.1zm18.9 0h-6.8q-0.3-0.9-2.4-0.9-1.2 0-1.7 0.2-0.4 0.1-0.4 0.4 0 0.3 0.3 0.4 0.3 0.1 1.1 0.2l5.9 0.5q1.2 0 1.9 0.2 0.8 0.2 1.4 0.6 0.6 0.4 0.9 1 0.3 0.6 0.3 1.6 0 0.6-0.2 1.2-0.2 0.5-0.6 0.9-0.3 0.3-0.9 0.6-0.6 0.3-1.3 0.4-0.7 0.2-1.7 0.3-1 0.1-2.1 0.1-1 0.1-2.5 0.1-1.3 0-2.3 0-1-0.1-2-0.2-1-0.1-1.7-0.2-0.7-0.2-1.4-0.5-0.6-0.3-1-0.6-0.4-0.4-0.6-1-0.2-0.5-0.3-1.2h7.1q0.2 0.6 0.7 0.8 0.5 0.3 1.6 0.3 1.4 0 1.9-0.2 0.6-0.2 0.6-0.6 0-0.3-0.3-0.4-0.3-0.1-1.1-0.2l-5.4-0.5q-1-0.1-1.7-0.2-0.7-0.1-1.3-0.4-0.6-0.2-1-0.6-0.3-0.3-0.5-0.8-0.3-0.6-0.3-1.3 0-0.7 0.3-1.3 0.3-0.5 0.8-0.9 0.5-0.4 1.2-0.7 0.7-0.2 1.7-0.4 1.1-0.1 2.1-0.1 1.1-0.1 2.5-0.1 1.3 0 2.2 0 1 0.1 2 0.2 1 0.1 1.7 0.2 0.7 0.2 1.4 0.5 0.6 0.2 1 0.6 0.4 0.4 0.6 0.9 0.3 0.5 0.3 1.1z"/><path  d="m162.8 57.2v-13.9h18.7v40.7h-18.7v-14.3h-21.3v14.3h-18.7v-40.7h18.7v13.9z"/></svg>