<svg version="1.2" xmlns="http://www.w3.org/2000/svg" viewBox="0 0 128 128" width="128" height="128"><style>.a{fill:#14f6d9;stroke:#000;stroke-miterlimit:100;stroke-width:4}</style><path class="a" d="m64 124c-33.2 0-60-26.8-60-60 0-33.2 26.8-60 60-60 33.2 0 60 26.8 60 60 0 33.2-26.8 60-60 60z"/><path  d="m33.6 41.2h39.1q6.4 0 11 1.2 4.6 1.2 7.8 3.9 3.2 2.6 4.7 6.9 1.6 4.3 1.6 10.4 0 6.1-1.6 10.4-1.5 4.3-4.7 6.9-3.2 2.7-7.8 3.9-4.6 1.2-11 1.2h-39.1zm32.6 13.9h-12.4v17h12.4q9.5 0 9.5-8.5 0-8.5-9.5-8.5z"/></svg>