<svg version="1.2" xmlns="http://www.w3.org/2000/svg" viewBox="0 0 82 82" width="82" height="82">
	<title>plus-svg</title>
	<style>
		.s0 { fill: #ffffff } 
	</style>
	<path id="Jump" class="s0" aria-label="Jump"  d="m15.8 38h6.6v5q0 1.5-0.5 2.5-0.4 1-1.5 1.7-1 0.7-2.6 1-1.7 0.3-4 0.3-2.4 0-4-0.3-1.7-0.3-2.7-1-1.1-0.7-1.5-1.7-0.5-1-0.5-2.5v-0.8h6.6v0.3q0 1.5 2.1 1.5 2 0 2-1.5zm22.4 10h-6.4v-1h-0.1q-0.9 0.6-1.9 0.9-1.1 0.3-2.6 0.3-2.3 0-3.4-0.7-1-0.8-1-2.4v-4.7h6.5v2.3q0 0.7 0.2 1 0.3 0.2 0.9 0.2 0.3 0 0.5 0 0.2-0.1 0.4-0.2 0.2-0.2 0.3-0.4 0.1-0.3 0.1-0.7v-2.2h6.5zm0.3-7.7h6.4v1h0.1q0.8-0.5 1.8-0.9 1-0.3 2.5-0.3 2.6 0 3.5 1.2 0.4-0.2 0.8-0.4 0.4-0.2 0.9-0.4 0.6-0.2 1.3-0.3 0.7-0.1 1.5-0.1 2.2 0 3.3 0.8 1.1 0.7 1.1 2.3v4.8h-6.5v-2.7q0-0.5-0.2-0.7-0.2-0.2-0.7-0.2-0.4 0-0.7 0.2-0.3 0.2-0.3 0.8v2.6h-6.5v-2.7q0-0.5-0.2-0.7-0.1-0.2-0.6-0.2-0.5 0-0.7 0.2-0.3 0.2-0.3 0.8v2.6h-6.5zm30.1 7h-0.1v3.1h-6.5v-10.1h6.4v0.8h0.1q0.9-0.5 1.8-0.8 1-0.3 2.2-0.3 3.1 0 4.5 1 1.5 1 1.5 3.2 0 2.1-1.5 3.1-1.4 1-4.5 1-2.3 0-3.9-1zm1.5-3.9q-1.8 0-1.8 0.8 0 0.8 1.8 0.8 1.7 0 1.7-0.8 0-0.8-1.7-0.8z"/>
</svg>