<svg version="1.2" xmlns="http://www.w3.org/2000/svg" viewBox="0 0 128 128" width="128" height="128"><style>.a{fill:#a0a0a0}.b{fill:#fff}</style><path class="a" d="m83.5 33.9h-39l19.5-33.8z"/><path class="a" d="m44.5 92.1h39l-19.5 33.8z"/><path class="a" d="m33.8 45v39l-33.8-19.5z"/><path class="a" d="m94 45v39l33.8-19.5z"/><path class="a" d="m91.2 12.5l29.6 25.3 7.2-38.3z"/><path class="a" d="m37 12.5l-29.6 25.3-7.2-38.3z"/><path class="a" d="m36.8 115.4l-29.6-25.4-7.2 38.3z"/><path class="a" d="m91 115.4l29.6-25.4 7.2 38.3z"/><path class="b" d="m64 83c-10.5 0-19-8.5-19-19 0-10.5 8.5-19 19-19 10.5 0 19 8.5 19 19 0 10.5-8.5 19-19 19z"/></svg>