<svg version="1.2" xmlns="http://www.w3.org/2000/svg" viewBox="0 0 35 128" width="35" height="128"><style>.a{fill:#fff}</style><path class="a" d="m22.8 53.1q-1.1 5.1-1.1 10.4 0 5.4 1.1 10.4 1 5.1 2.5 8.5 1.4 3.5 3.4 6.6 1.9 3.1 3.2 4.7 1.3 1.5 2.5 2.7h-17.9q-1.3-0.9-2.8-2.1-1.4-1.3-3.2-3.4-1.9-2-3.5-4.8-1.7-2.7-3.1-6-1.4-3.3-2.2-7.6-0.9-4.3-0.9-9 0-4.6 0.9-8.9 0.8-4.4 2.2-7.6 1.4-3.3 3.1-6.1 1.6-2.7 3.5-4.7 1.8-2.1 3.2-3.4 1.5-1.3 2.8-2.1h17.9q-1.2 1.2-2.5 2.7-1.3 1.6-3.2 4.7-2 3.1-3.4 6.6-1.5 3.4-2.5 8.4z"/></svg>