<svg version="1.2" xmlns="http://www.w3.org/2000/svg" viewBox="0 0 533 533" width="533" height="533"><style>.a{fill:none;stroke:#3da294;stroke-miterlimit:100;stroke-width:32}.b{fill:#3da294}</style><path fill-rule="evenodd" class="a" d="m267 21c137.5 0 249 109.9 249 245.5 0 135.6-111.5 245.5-249 245.5-137.5 0-249-109.9-249-245.5 0-135.6 111.5-245.5 249-245.5z"/><path class="b" d="m264.3 247.4h-48.2q-2.2-8.7-19.1-8.7-9.7 0-13.7 1.7-4.1 1.6-4.1 4.7 0 2.6 2.6 3.9 2.6 1.2 9.3 1.7l39.3 2.9q9.3 0.7 16 2.6 6.8 1.8 11.7 5.1 4.9 3.3 7.3 8.4 2.5 5.1 2.5 12.2 0 5.8-1.4 10.3-1.4 4.5-4 8-2.6 3.4-7 5.9-4.4 2.5-9.7 4.1-5.4 1.7-12.9 2.7-7.4 0.9-15.6 1.3-8.2 0.4-18.9 0.4-14.6 0-25-0.9-10.4-0.9-19-3.1-8.5-2.2-13.8-6-5.2-3.9-8.1-9.7-2.9-5.8-3.2-14h49q1.5 6 6.4 8.5 5 2.5 14.6 2.5 19.3 0 19.3-7.3 0-3.1-2.8-4.4-2.7-1.3-9.1-1.9l-37.5-3.3q-7.3-0.6-12.8-1.8-5.5-1.1-10.4-3.2-4.9-2.1-8-5.1-3.1-3.1-4.8-7.6-1.8-4.5-1.8-10.4 0-7.2 2.9-12.5 2.8-5.3 8.1-8.8 5.3-3.5 13.6-5.7 8.3-2.2 18.4-3 10-0.9 23.4-0.9 13.2 0 23.1 0.9 9.9 0.8 18.2 3 8.3 2.2 13.6 5.7 5.3 3.6 8.3 9 3 5.4 3.3 12.8zm98 29.2l-33.4 5.6q-4.6 0.8-7.6 2.3-3 1.4-4 2.9h83.4v23.6h-128.7v-3.6q0-6.6 1.4-12.1 1.4-5.6 3.7-9.7 2.3-4.1 6.2-7.5 3.8-3.5 7.7-6 3.9-2.4 9.6-4.5 5.6-2.2 10.5-3.7 5-1.4 11.8-3l19.2-4.7q7.8-1.8 10.7-3.6 2.8-1.9 2.8-5.1 0-6.6-15-6.6-16.9 0-19.6 10.6h-46.6q1-11.8 7.6-19.1 6.6-7.3 20.4-11 13.9-3.7 36.4-3.7 13.1 0 22.8 0.9 9.8 0.8 17.6 2.8 7.8 2 12.6 5.2 4.8 3.2 7.3 8 2.5 4.6 2.5 11 0 5-1.1 9-1.1 4-3.5 7.1-2.4 3-5.6 5.4-3.1 2.3-7.8 4.1-4.6 1.7-9.6 3-5 1.2-11.7 2.4z"/></svg>