<svg version="1.2" xmlns="http://www.w3.org/2000/svg" viewBox="0 0 220 128" width="220" height="128"><style>.a{fill:#dff369;stroke:#000;stroke-miterlimit:100;stroke-width:4}.b{fill:#fff}</style><path class="a" d="m110 124c-33.2 0-60-26.8-60-60 0-33.2 26.8-60 60-60 33.2 0 60 26.8 60 60 0 33.2-26.8 60-60 60z"/><path  d="m81.9 43.3h57v14.1h-19.1v26.6h-18.7v-26.6h-19.2z"/><path class="b" d="m34.3 54.6q-1 4.4-1 9.2 0 4.8 1 9.3 0.9 4.4 2.2 7.5 1.3 3.1 3 5.8 1.7 2.8 2.8 4.2 1.2 1.3 2.3 2.4h-15.9q-1.2-0.8-2.5-1.9-1.2-1.1-2.9-2.9-1.6-1.9-3.1-4.3-1.4-2.4-2.7-5.3-1.3-3-2-6.8-0.7-3.8-0.7-8 0-4.1 0.7-8 0.7-3.8 2-6.7 1.3-2.9 2.7-5.4 1.5-2.4 3.1-4.2 1.7-1.8 2.9-3 1.3-1.1 2.5-1.9h15.9q-1.1 1.1-2.3 2.5-1.1 1.3-2.8 4.1-1.7 2.8-3 5.8-1.3 3.1-2.2 7.6z"/><path class="b" d="m185.9 73.1q1-4.5 1-9.3 0-4.8-1-9.2-0.9-4.5-2.2-7.6-1.3-3-3-5.8-1.7-2.8-2.9-4.1-1.1-1.4-2.2-2.5h16q0.9 0.7 2 1.6 1.1 0.8 2.4 2.3 1.4 1.5 2.7 3.3 1.3 1.7 2.5 4.1 1.3 2.4 2.2 5 0.9 2.6 1.5 6 0.5 3.4 0.5 6.9 0 3.6-0.5 7-0.6 3.3-1.5 5.9-0.9 2.6-2.2 5.1-1.2 2.4-2.5 4.1-1.3 1.7-2.7 3.2-1.3 1.5-2.4 2.4-1.1 0.9-2 1.5h-16q1.1-1.1 2.2-2.4 1.2-1.4 2.9-4.2 1.7-2.7 3-5.8 1.3-3.1 2.2-7.5z"/></svg>